<svg width="16" height="16" viewBox="0 0 16 16" fill="none" xmlns="http://www.w3.org/2000/svg">
<path d="M12.9497 3.05025C15.6834 5.78392 15.6834 10.2161 12.9497 12.9497C10.216 15.6834 5.78386 15.6834 3.05019 12.9497C0.316522 10.2161 0.316522 5.78392 3.05019 3.05025C5.78386 0.316583 10.216 0.316583 12.9497 3.05025Z" fill="#3574F0" fill-opacity="0.25"/>
<path fill-rule="evenodd" clip-rule="evenodd" d="M14.9143 6.9048L13.9264 7.06044C13.7359 5.85123 13.1755 4.69026 12.2426 3.75735C11.3097 2.82444 10.1487 2.26403 8.93948 2.07351L9.09512 1.08569C10.5062 1.30801 11.8623 1.96286 12.9497 3.05024C14.0371 4.13762 14.6919 5.49374 14.9143 6.9048ZM6.90474 1.08569L7.06038 2.07351C5.85117 2.26403 4.6902 2.82444 3.75729 3.75735C2.82438 4.69026 2.26396 5.85123 2.07345 7.06044L1.08563 6.9048C1.30795 5.49374 1.9628 4.13762 3.05018 3.05024C4.13756 1.96286 5.49368 1.30801 6.90474 1.08569ZM1.08563 9.09518C1.30795 10.5063 1.9628 11.8624 3.05018 12.9497C4.13756 14.0371 5.49368 14.692 6.90474 14.9143L7.06037 13.9265C5.85117 13.736 4.6902 13.1755 3.75729 12.2426C2.82438 11.3097 2.26396 10.1488 2.07345 8.93954L1.08563 9.09518ZM9.09512 14.9143L8.93948 13.9265C10.1487 13.736 11.3097 13.1755 12.2426 12.2426C13.1755 11.3097 13.7359 10.1488 13.9264 8.93954L14.9143 9.09518C14.6919 10.5063 14.0371 11.8624 12.9497 12.9497C11.8623 14.0371 10.5062 14.692 9.09512 14.9143Z" fill="#3574F0"/>
<path d="M8.13295 11.5C9.61223 11.5 10.8836 10.6105 11.2075 9.33909H10.2213C9.90229 10.0739 9.11914 10.6057 8.13295 10.6057C6.77936 10.6057 5.80284 9.51796 5.80284 8C5.80284 6.48204 6.77936 5.39434 8.13295 5.39434C9.11914 5.39434 9.90229 5.92611 10.2213 6.66091H11.2075C10.8836 5.3895 9.61223 4.5 8.13295 4.5C6.21859 4.5 4.79248 5.99378 4.79248 8C4.79248 10.0062 6.21859 11.5 8.13295 11.5Z" fill="#3574F0"/>
</svg>
